<svg width="15" height="15" fill="none" xmlns="http://www.w3.org/2000/svg"><path d="M11.02 9.102h-.3a.607.607 0 00-.607.607v.733h1.514V9.71a.608.608 0 00-.607-.607z" fill="#7D7F9B"/><path d="M13.247 10.134v-.05c0-.961-.612-1.782-1.467-2.094V2.75a.553.553 0 00-.162-.391L9.421.162A.554.554 0 009.03 0H2.418C1.82 0 1.332.487 1.332 1.086v11.646c0 .6.487 1.087 1.086 1.087h5.653v.053A1.13 1.13 0 009.199 15h3.341a1.13 1.13 0 001.128-1.128v-2.86c0-.354-.164-.67-.42-.878zm-4.755-.05v.05a1.125 1.125 0 00-.421.878v1.972H2.418c-.113 0-.281-.098-.281-.252V1.086c0-.08.113-.252.281-.252h5.843v2.002c0 .393.32.713.713.713h2.002v4.31c-.516.028-1.296.176-1.724.55-.373.328-.627.778-.678 1.075-.05.296-.082.392-.082.6zm4.618 3.788s.015.566-.57.57H9.2c-.2-.005-.57-.192-.57-.57v-2.86c0-.424.499-.57.499-.57V9.71c0-.66.81-1.271 1.591-1.295h.3c.714 0 1.543.586 1.543 1.295v.733s.548.111.548.57v2.86z" fill="#7D7F9B"/></svg>