<svg width="50" height="60" fill="none" xmlns="http://www.w3.org/2000/svg"><g filter="url(#filter0_d)"><path d="M29.715 9.052h-6.77a3.046 3.046 0 00-2.044-2.868A3.022 3.022 0 0019.894 6a3.055 3.055 0 00-3.052 3.052v10.391a3.055 3.055 0 003.052 3.052c.356 0 .69-.073 1.008-.184a3.047 3.047 0 002.043-2.868v-4.206c0-.667-.501-1.195-1.144-1.284-.06-.008-.113-.035-.175-.035-.73 0-1.32.59-1.32 1.32v4.205a.413.413 0 01-.825 0v-7.989l9.333-.006v5.151a2.73 2.73 0 002.727 2.728l5.049-.014.055 22.755c0 .84-.68 1.522-1.522 1.522H14.876c-.84 0-1.524-.682-1.524-1.522V12.984c0-.835.677-1.512 1.511-1.52V9.053a3.936 3.936 0 00-3.919 3.93v29.085A3.937 3.937 0 0014.876 46h20.247a3.939 3.939 0 003.933-3.932V18.359l-9.341-9.307zm-10.233 0a.413.413 0 01.824 0h-.825z" fill="#7D7F9B"/></g><defs><filter id="filter0_d" x="-5" y="0" width="60" height="60" filterUnits="userSpaceOnUse" color-interpolation-filters="sRGB"><feFlood flood-opacity="0" result="BackgroundImageFix"/><feColorMatrix in="SourceAlpha" values="0 0 0 0 0 0 0 0 0 0 0 0 0 0 0 0 0 0 127 0"/><feOffset dy="4"/><feGaussianBlur stdDeviation="5"/><feColorMatrix values="0 0 0 0 0.290196 0 0 0 0 0.301961 0 0 0 0 0.462745 0 0 0 0.1 0"/><feBlend in2="BackgroundImageFix" result="effect1_dropShadow"/><feBlend in="SourceGraphic" in2="effect1_dropShadow" result="shape"/></filter></defs></svg>