<svg width="30" height="30" fill="none" xmlns="http://www.w3.org/2000/svg"><path d="M28.82 22.541c-2.695-2.331-5.19-5.621-5.19-13.837 0-4.758-3.87-8.628-8.629-8.628-4.758 0-8.629 3.87-8.629 8.628 0 8.222-2.494 11.51-5.193 13.84A3.417 3.417 0 000 25.118c0 .542.44.981.982.981h9.314A4.813 4.813 0 0015 29.924a4.813 4.813 0 004.704-3.824h9.314c.543 0 .982-.44.982-.981 0-.993-.43-1.933-1.18-2.578zM15 27.961a2.847 2.847 0 01-2.667-1.86h5.334A2.847 2.847 0 0115 27.96zM2.35 24.137c.035-.039.073-.076.114-.11 4.114-3.553 5.87-8.136 5.87-15.323A6.673 6.673 0 0115 2.039a6.672 6.672 0 016.666 6.665c0 7.18 1.755 11.763 5.872 15.323.04.035.079.072.114.11H2.35z" fill="#A6A6A6"/></svg>