<svg width="20" height="20" fill="none" xmlns="http://www.w3.org/2000/svg"><g clip-path="url(#clip0)"><path d="M19.551 15.806l-3.088-3.09c-.616-.612-1.634-.593-2.271.044l-1.556 1.555-.307-.17c-.983-.545-2.328-1.291-3.743-2.707-1.42-1.42-2.166-2.767-2.713-3.75-.057-.104-.112-.205-.167-.3L6.75 6.345l.514-.514c.637-.638.655-1.656.041-2.27L4.217.47c-.614-.614-1.633-.595-2.271.043l-.87.875.023.024a5.034 5.034 0 00-.717 1.265c-.167.44-.272.862-.32 1.283-.407 3.381 1.138 6.471 5.331 10.665 5.796 5.795 10.467 5.357 10.669 5.336a5.22 5.22 0 001.287-.323 5.01 5.01 0 001.26-.715l.02.017.881-.863c.636-.638.655-1.657.041-2.272z" fill="#fff"/></g><defs><clipPath id="clip0"><path fill="#fff" d="M0 0h20v20H0z"/></clipPath></defs></svg>