<svg width="20" height="20" fill="none" xmlns="http://www.w3.org/2000/svg"><g clip-path="url(#clip0)"><path d="M17.845 0H2.155A2.157 2.157 0 000 2.155v11.494c0 1.188.967 2.155 2.155 2.155h4.973l1.646 3.293c.287.574.734.903 1.226.903s.939-.33 1.226-.903l1.647-3.294h4.972A2.157 2.157 0 0020 13.65V2.155A2.157 2.157 0 0017.845 0zm.983 13.649a.984.984 0 01-.983.983h-5.334a.586.586 0 00-.525.324l-1.808 3.617a.712.712 0 01-.178.245.713.713 0 01-.178-.245l-1.808-3.617a.586.586 0 00-.524-.324H2.155a.984.984 0 01-.983-.983V2.155c0-.542.44-.983.983-.983h15.69c.542 0 .983.44.983.983v11.494z" fill="#A6A6A6"/></g><defs><clipPath id="clip0"><path fill="#fff" d="M0 0h20v20H0z"/></clipPath></defs></svg>