<svg width="10" height="10" fill="none" xmlns="http://www.w3.org/2000/svg"><g clip-path="url(#clip0)"><path d="M8.923 0H1.077C.483 0 0 .483 0 1.077v5.747c0 .594.483 1.078 1.077 1.078h2.487l.823 1.647c.144.286.367.451.613.451s.47-.165.613-.451l.823-1.647h2.487c.594 0 1.077-.484 1.077-1.078V1.077C10 .483 9.517 0 8.923 0zm.491 6.824c0 .271-.22.492-.491.492H6.255a.293.293 0 00-.262.162L5.09 9.287a.356.356 0 01-.09.122.356.356 0 01-.089-.123l-.904-1.808a.293.293 0 00-.262-.162H1.077a.492.492 0 01-.491-.492V1.077c0-.27.22-.491.491-.491h7.846c.27 0 .491.22.491.491v5.747z" fill="#616161"/></g><defs><clipPath id="clip0"><path fill="#fff" d="M0 0h10v10H0z"/></clipPath></defs></svg>