<svg width="10.000000000000002" height="10.000000000000002" xmlns="http://www.w3.org/2000/svg" preserveAspectRatio="none">

 <g>
  <title>background</title>
  <rect fill="none" id="canvas_background" height="12" width="12" y="-1" x="-1"/>
 </g>
 <g>
  <title>Layer 1</title>
  <path id="svg_2" fill="#fff" d="m9.393769,0.543603a0.567,0.567 0 0 0 -0.804,0l-3.603,3.603l-3.603,-3.603a0.566,0.566 0 0 0 -0.804,0a0.566,0.566 0 0 0 0,0.804l3.603,3.603l-3.603,3.603a0.572,0.572 0 0 0 0.4,0.972c0.143,0 0.29,-0.055 0.4,-0.168l3.603,-3.603l3.602,3.603c0.11,0.109 0.257,0.168 0.4,0.168a0.55,0.55 0 0 0 0.4,-0.168a0.567,0.567 0 0 0 0,-0.804l-3.594,-3.603l3.603,-3.603a0.567,0.567 0 0 0 0,-0.804z"/>
 </g>
</svg>