<svg width="20" height="20" fill="none" xmlns="http://www.w3.org/2000/svg"><path d="M14.5 8.132V5.364c0-.652-.56-1.182-1.25-1.182h-1.875V3.59c0-.326-.28-.591-.625-.591s-.625.265-.625.59v.592h-3.75V3.59c0-.326-.28-.591-.625-.591s-.625.265-.625.59v.592H3.25c-.69 0-1.25.53-1.25 1.182v7.09c0 .652.56 1.182 1.25 1.182h5.428C9.382 15.032 10.884 16 12.625 16 15.037 16 17 14.145 17 11.864c0-1.646-1.024-3.066-2.5-3.732zM3.25 12.454v-7.09h1.875v.59c0 .327.28.591.625.591s.625-.264.625-.59v-.591h3.75v.59c0 .327.28.591.625.591s.625-.264.625-.59v-.591h1.875v2.41a4.584 4.584 0 00-.625-.047c-2.412 0-4.375 1.856-4.375 4.137 0 .2.02.397.05.59H3.25zm9.375 2.364c-1.723 0-3.125-1.325-3.125-2.954 0-1.63 1.402-2.955 3.125-2.955s3.125 1.325 3.125 2.955c0 1.629-1.402 2.954-3.125 2.954z" fill="#fff"/><path d="M13.8 13.018l-.8-.654v-.819c0-.3-.224-.545-.5-.545s-.5.244-.5.546v1.09c0 .172.074.334.2.437l1 .818c.09.074.195.109.3.109a.486.486 0 00.4-.218.579.579 0 00-.1-.764z" fill="#fff"/></svg>