<svg width="16" height="16" fill="none" xmlns="http://www.w3.org/2000/svg"><path d="M13.303 2.697A7.447 7.447 0 008 .5c-2.004 0-3.886.78-5.303 2.197A7.447 7.447 0 00.5 8c0 2.004.78 3.886 2.197 5.303A7.447 7.447 0 008 15.5c2.004 0 3.886-.78 5.303-2.197A7.447 7.447 0 0015.5 8c0-2.004-.78-3.886-2.197-5.303zM12.7 12.7A6.605 6.605 0 018 14.648 6.605 6.605 0 013.3 12.7a6.655 6.655 0 010-9.4A6.605 6.605 0 018 1.352c1.774 0 3.444.692 4.7 1.948a6.655 6.655 0 010 9.4z" fill="#fff"/><path d="M11.305 4.695a.425.425 0 00-.603 0L8 7.397 5.298 4.695a.425.425 0 00-.603 0 .425.425 0 000 .603L7.397 8l-2.702 2.702a.43.43 0 00.3.73.416.416 0 00.3-.127l2.702-2.702 2.702 2.702a.43.43 0 00.3.126.41.41 0 00.3-.126.425.425 0 000-.603L8.603 8l2.702-2.702a.425.425 0 000-.603z" fill="#fff"/></svg>