<svg width="20" height="20" fill="none" xmlns="http://www.w3.org/2000/svg"><path d="M17.07 2.93A9.929 9.929 0 0010 0a9.93 9.93 0 00-7.07 2.93A9.93 9.93 0 000 10a9.929 9.929 0 002.93 7.07A9.93 9.93 0 0010 20a9.93 9.93 0 007.07-2.93A9.93 9.93 0 0020 10a9.93 9.93 0 00-2.93-7.07zm-.803 13.337A8.806 8.806 0 0110 18.864a8.806 8.806 0 01-6.267-2.597C.278 12.81.278 7.189 3.733 3.733A8.806 8.806 0 0110 1.136c2.365 0 4.592.922 6.267 2.597 3.455 3.456 3.455 9.078 0 12.534z" fill="#fff"/><path d="M14.407 5.593a.567.567 0 00-.804 0L10 9.196 6.397 5.593a.566.566 0 00-.804 0 .566.566 0 000 .804L9.196 10l-3.603 3.603a.572.572 0 00.4.972c.143 0 .29-.055.4-.168l3.603-3.603 3.602 3.603c.11.109.257.168.4.168a.55.55 0 00.4-.168.567.567 0 000-.804L10.804 10l3.603-3.603a.567.567 0 000-.804z" fill="#fff"/></svg>