<svg width="20" height="20" fill="none" xmlns="http://www.w3.org/2000/svg"><g clip-path="url(#clip0)" fill-rule="evenodd" clip-rule="evenodd" fill="#fff"><path d="M14.57 4.634l1.362 1.394c.55.564.55 1.479 0 2.04l-6.898 7.058a.474.474 0 01-.215.129L5.117 16.32c-.107.025-.358.003-.484-.128a.522.522 0 01-.126-.495l1.04-3.785a.488.488 0 01.126-.22l6.903-7.058c.767-.786 1.728-.272 1.994 0zm-.12 3.52l.783-.8a.44.44 0 000-.611l-1.362-1.395a.426.426 0 00-.598 0l-.784.801 1.96 2.005zm-7.727 3.894l1.96 2.005L13.75 8.87l-1.96-2.005-5.067 5.184zm1.014 2.467l-1.466-1.5-.576 2.089 2.042-.589z"/><path d="M10.007-.028C4.469-.028-.02 4.46-.02 9.997c0 5.536 4.49 10.024 10.027 10.024 5.537 0 10.027-4.488 10.027-10.024 0-5.537-4.49-10.025-10.027-10.025zM1.064 9.997a8.942 8.942 0 018.943-8.941 8.942 8.942 0 110 17.881 8.942 8.942 0 01-8.943-8.94z"/></g><defs><clipPath id="clip0"><path fill="#fff" d="M0 0h20v20H0z"/></clipPath></defs></svg>