<svg width="16" height="16" fill="none" xmlns="http://www.w3.org/2000/svg"><g clip-path="url(#clip0)" fill-rule="evenodd" clip-rule="evenodd" fill="#fff"><path d="M11.428 3.975l1.021 1.046a1.101 1.101 0 010 1.53l-5.173 5.293a.355.355 0 01-.162.097l-2.776.799c-.08.018-.269.002-.363-.096a.392.392 0 01-.095-.371l.78-2.839a.366.366 0 01.095-.165l5.177-5.294c.576-.59 1.296-.204 1.496 0zm-.091 2.64l.588-.6a.33.33 0 000-.458l-1.022-1.046a.32.32 0 00-.448 0l-.588.601 1.47 1.504zM5.543 9.537l1.47 1.504 3.8-3.888-1.47-1.504-3.8 3.888zm.76 1.85l-1.1-1.125-.432 1.567 1.532-.441z"/><path d="M8.005.479a7.52 7.52 0 100 15.037 7.52 7.52 0 100-15.037zM1.298 7.997a6.706 6.706 0 016.707-6.705 6.706 6.706 0 110 13.41 6.706 6.706 0 01-6.707-6.705z"/></g><defs><clipPath id="clip0"><path fill="#fff" transform="translate(.5 .5)" d="M0 0h15v15H0z"/></clipPath></defs></svg>