<svg width="20" height="20" fill="none" xmlns="http://www.w3.org/2000/svg"><path d="M12.937 1.394h3.68L8.204 9.81A.7.7 0 008.696 11c.18 0 .358-.07.492-.203l8.417-8.415v3.679a.698.698 0 101.395 0V.699A.7.7 0 0018.3 0h-5.363a.7.7 0 00-.699.7.701.701 0 00.7.694z" fill="#616161"/><path d="M4.198 20h11.6a4.202 4.202 0 004.198-4.198v-5.463a.698.698 0 00-.702-.698.697.697 0 00-.698.698v5.459a2.803 2.803 0 01-2.798 2.798h-11.6A2.803 2.803 0 011.4 15.798V4.202a2.803 2.803 0 012.8-2.798h5.413a.698.698 0 00.698-.702A.7.7 0 009.612 0H4.198A4.202 4.202 0 000 4.198v11.6A4.206 4.206 0 004.198 20z" fill="#616161"/></svg>