<svg width="20" height="20" fill="none" xmlns="http://www.w3.org/2000/svg"><path d="M13.917 1.4h3.692L9.168 9.844a.702.702 0 00.493 1.195c.18 0 .36-.069.494-.204l8.446-8.445v3.692a.7.7 0 101.399 0V.702A.702.702 0 0019.298 0h-5.381a.702.702 0 00-.702.702.703.703 0 00.702.697z" fill="#fff"/><path d="M4.198 20h11.6a4.202 4.202 0 004.198-4.198v-5.463a.698.698 0 00-.702-.698.697.697 0 00-.698.698v5.459a2.803 2.803 0 01-2.798 2.798h-11.6A2.803 2.803 0 011.4 15.798V4.202a2.803 2.803 0 012.8-2.798h5.413a.698.698 0 00.698-.702A.7.7 0 009.612 0H4.198A4.202 4.202 0 000 4.198v11.6A4.206 4.206 0 004.198 20z" fill="#fff"/></svg>