<svg width="20" height="20" fill="none" xmlns="http://www.w3.org/2000/svg"><path d="M19.207 5.409a2.59 2.59 0 00-1.9-.794H9.232v-.384a2.59 2.59 0 00-.793-1.9 2.591 2.591 0 00-1.9-.792H2.692a2.59 2.59 0 00-1.899.793A2.59 2.59 0 000 4.23v11.538c0 .737.264 1.37.793 1.9a2.59 2.59 0 001.9.793h14.615a2.59 2.59 0 001.899-.794A2.59 2.59 0 0020 15.77V7.308a2.59 2.59 0 00-.793-1.9zm-.745 10.36c0 .32-.113.594-.337.818a1.113 1.113 0 01-.817.336H2.692c-.32 0-.593-.112-.817-.336a1.113 1.113 0 01-.336-.818V4.231c0-.32.112-.593.336-.817a1.11 1.11 0 01.817-.337H6.54c.32 0 .593.112.817.337.224.224.336.497.336.817v.77c0 .32.113.592.337.817.224.224.497.336.817.336h8.462c.32 0 .593.112.817.337.224.224.337.496.337.817v8.461z" fill="#A6A6A6"/></svg>