<svg width="30" height="30" fill="none" xmlns="http://www.w3.org/2000/svg"><path fill-rule="evenodd" clip-rule="evenodd" d="M24.52 0H5.48A5.486 5.486 0 000 5.48v19.04A5.486 5.486 0 005.48 30h19.04A5.486 5.486 0 0030 24.52V5.48A5.486 5.486 0 0024.52 0zm3.581 24.52a3.585 3.585 0 01-3.58 3.581H5.48a3.585 3.585 0 01-3.581-3.58V5.48a3.585 3.585 0 013.58-3.581H24.52a3.585 3.585 0 013.581 3.58V24.52zm-13.1-18.45a4.658 4.658 0 00-4.653 4.651.95.95 0 001.899 0A2.757 2.757 0 0115 7.968a2.757 2.757 0 012.754 2.753c0 .873-.632 1.457-1.672 2.315-.952.785-2.031 1.674-2.031 3.089v3.046a.95.95 0 001.899 0v-3.046c0-.519.62-1.03 1.339-1.623V14.5c1.053-.868 2.363-1.948 2.363-3.78A4.657 4.657 0 0015 6.07zm-1.219 16.643A1.22 1.22 0 0115 21.497a1.22 1.22 0 011.218 1.218A1.22 1.22 0 0115 23.93a1.22 1.22 0 01-1.218-1.218z" fill="#4A4D76"/></svg>