<svg width="30" height="30" fill="none" xmlns="http://www.w3.org/2000/svg"><path d="M24.92 4.115A13.915 13.915 0 0115.638.571L15 0l-.639.57A13.912 13.912 0 015.08 4.116H1.994v6.757c0 3.914 1.112 7.726 3.216 11.026a20.473 20.473 0 008.64 7.567L15 30l1.15-.535a20.473 20.473 0 008.64-7.567 20.472 20.472 0 003.215-11.026V4.115h-3.084zm1.327 6.757a18.72 18.72 0 01-2.94 10.08 18.716 18.716 0 01-7.9 6.919l-.407.19-.408-.19a18.718 18.718 0 01-7.9-6.919 18.717 18.717 0 01-2.94-10.08V5.873H5.08c3.627 0 7.123-1.25 9.92-3.535a15.666 15.666 0 009.922 3.535h1.326v5z" fill="#4A4D76"/><path d="M17.677 12.325V9.31h-5.353v3.014H9.31v5.353h3.014v3.014h5.353v-3.014h3.014v-5.353h-3.014zm1.256 3.595h-3.014v3.014h-1.837V15.92h-3.014v-1.837h3.014V11.07h1.837v3.014h3.014v1.837z" fill="#4A4D76"/></svg>