<svg width="30" height="30" fill="none" xmlns="http://www.w3.org/2000/svg"><path d="M20.5 3.644a1.25 1.25 0 10-1.002 2.291A11.252 11.252 0 0126.25 16.25c0 6.213-5.037 11.25-11.25 11.25S3.75 22.463 3.75 16.25c0-4.514 2.684-8.537 6.75-10.315a1.25 1.25 0 10-1.002-2.29A13.754 13.754 0 001.25 16.25C1.25 23.844 7.406 30 15 30c7.593 0 13.75-6.156 13.75-13.75A13.752 13.752 0 0020.5 3.644z" fill="#C8C8C8"/><path d="M15 13.75c.69 0 1.25-.56 1.25-1.25V1.25a1.25 1.25 0 00-2.5 0V12.5c0 .69.56 1.25 1.25 1.25z" fill="#C8C8C8"/></svg>