<svg width="16" height="16" fill="none" xmlns="http://www.w3.org/2000/svg"><path d="M8 15.5C3.864 15.5.5 12.135.5 8 .5 3.864 3.864.5 8 .5c4.135 0 7.5 3.364 7.5 7.5 0 4.135-3.365 7.5-7.5 7.5zM8 1.357A6.65 6.65 0 001.357 8 6.65 6.65 0 008 14.642 6.65 6.65 0 0014.642 8 6.65 6.65 0 008 1.357z" fill="#fff"/><path d="M10.957 8.428H5.043a.428.428 0 110-.857h5.914a.429.429 0 010 .857z" fill="#fff"/><path d="M8 11.385a.429.429 0 01-.43-.428V5.043a.43.43 0 01.858 0v5.914a.428.428 0 01-.428.428z" fill="#fff"/></svg>