<svg width="20" height="20" fill="none" xmlns="http://www.w3.org/2000/svg"><path d="M10 20C4.486 20 0 15.514 0 10S4.486 0 10 0s10 4.486 10 10-4.486 10-10 10zm0-18.858c-4.885 0-8.858 3.974-8.858 8.858 0 4.883 3.973 8.856 8.858 8.856 4.883 0 8.856-3.973 8.856-8.856 0-4.884-3.973-8.858-8.856-8.858z" fill="#fff"/><path d="M13.943 10.57H6.057a.571.571 0 110-1.142h7.886a.572.572 0 010 1.143z" fill="#fff"/><path d="M10 14.514a.572.572 0 01-.572-.571V6.057a.572.572 0 011.143 0v7.886a.57.57 0 01-.571.57z" fill="#fff"/></svg>