<svg width="20" height="20" fill="none" xmlns="http://www.w3.org/2000/svg"><path d="M16.55 4.1h-.515V2.954A2.96 2.96 0 0013.08 0H6.875a2.96 2.96 0 00-2.956 2.955V4.1h-.468A2.96 2.96 0 00.495 7.055v4.767a2.96 2.96 0 002.956 2.955h.464v3.747c0 .813.663 1.476 1.476 1.476h9.164c.813 0 1.476-.663 1.476-1.476v-3.747h.518a2.96 2.96 0 002.956-2.955V7.055a2.96 2.96 0 00-2.956-2.956zM5.033 2.954A1.84 1.84 0 016.87 1.12h6.202a1.84 1.84 0 011.836 1.836V4.1H5.034V2.955zm9.878 15.578a.36.36 0 01-.357.356H5.391a.36.36 0 01-.357-.356v-6.18h9.878v6.18zm3.473-6.707a1.84 1.84 0 01-1.836 1.836h-.514v-1.31h.738c.31 0 .56-.248.56-.56 0-.31-.25-.559-.56-.559H3.094a.56.56 0 100 1.12h.825v1.31h-.468a1.84 1.84 0 01-1.837-1.837V7.059a1.84 1.84 0 011.837-1.836h13.098a1.84 1.84 0 011.837 1.836v4.767z" fill="#fff"/><path d="M6.39 15.105h7.125a.56.56 0 100-1.12H6.39a.56.56 0 000 1.12zm7.17 1.168H6.432a.56.56 0 100 1.12h7.125c.311 0 .56-.249.56-.56 0-.31-.249-.56-.555-.56zm2.977-9.977H15.4a.56.56 0 100 1.12h1.136a.56.56 0 100-1.12z" fill="#fff"/></svg>