<svg width="30" height="30" fill="none" xmlns="http://www.w3.org/2000/svg"><path d="M28.8 22.999L15.914 10.113a8.085 8.085 0 00-2.111-7.747A8.11 8.11 0 004.642.765a1.173 1.173 0 00-.33 1.89l3.441 3.44-1.658 1.658-3.44-3.441a1.173 1.173 0 00-1.89.33 8.109 8.109 0 001.601 9.16 8.086 8.086 0 007.747 2.112L22.999 28.8c1.6 1.6 4.202 1.6 5.801 0 1.6-1.6 1.6-4.202 0-5.801zm-1.657 4.144a1.76 1.76 0 01-2.486 0L11.27 13.757a1.172 1.172 0 00-1.227-.273 5.77 5.77 0 01-6.02-1.339A5.762 5.762 0 012.388 7.36l2.879 2.88c.457.457 1.2.457 1.657 0l3.315-3.316c.458-.457.458-1.2 0-1.658L7.36 2.387a5.761 5.761 0 014.785 1.636 5.769 5.769 0 011.34 6.02 1.17 1.17 0 00.273 1.228l13.385 13.385a1.76 1.76 0 010 2.487z" fill="#4A4D76"/></svg>