<svg width="20" height="20" fill="none" xmlns="http://www.w3.org/2000/svg"><path d="M17.071 2.929A9.935 9.935 0 0010 0a9.935 9.935 0 00-7.071 2.929A9.935 9.935 0 000 10a9.935 9.935 0 002.929 7.071A9.935 9.935 0 0010 20a9.935 9.935 0 007.071-2.929A9.935 9.935 0 0020 10a9.935 9.935 0 00-2.929-7.071zm-.829 13.313A8.77 8.77 0 0110 18.828a8.77 8.77 0 01-6.242-2.586A8.77 8.77 0 011.172 10a8.77 8.77 0 012.586-6.242A8.77 8.77 0 0110 1.172a8.77 8.77 0 016.242 2.586A8.77 8.77 0 0118.828 10a8.77 8.77 0 01-2.586 6.242z" fill="#0FA9C7"/><path d="M9.104 3.369a6.631 6.631 0 00-3.836 1.9 6.706 6.706 0 00-1.69 6.618l-.97-.432-.476 1.07 2.845 1.267 1.266-2.845-1.07-.476-.476 1.067a5.531 5.531 0 011.4-5.44A5.469 5.469 0 019.26 4.53a5.56 5.56 0 013.403.634l.566-1.026a6.74 6.74 0 00-4.126-.77zm8.763 4.105l-2.844-1.266-1.267 2.845 1.07.476.476-1.067a5.531 5.531 0 01-1.4 5.44 5.468 5.468 0 01-3.163 1.568 5.56 5.56 0 01-3.403-.634l-.566 1.026a6.735 6.735 0 004.125.77 6.631 6.631 0 003.836-1.9 6.706 6.706 0 001.69-6.62l.97.433.477-1.07z" fill="#0FA9C7"/></svg>