<svg width="20" height="20" fill="none" xmlns="http://www.w3.org/2000/svg"><path d="M10 4.656a.687.687 0 00-.687.688v2.175L7.097 3.826a.687.687 0 10-1.179.707l3.492 5.82.003.004A.686.686 0 0010.687 10V5.344A.687.687 0 0010 4.656z" fill="#FDAE55"/><path d="M10 0C4.487 0 .001 4.486.001 10s4.486 10 10 10C15.513 20 20 15.514 20 10S15.514 0 10 0zm.688 18.598v-.45a.687.687 0 10-1.375 0v.45c-4.209-.333-7.577-3.702-7.91-7.91h.45a.687.687 0 000-1.375h-.45a8.638 8.638 0 017.91-7.911v.45a.687.687 0 001.375 0v-.45a8.64 8.64 0 017.91 7.91h-.45a.687.687 0 000 1.375h.45a8.638 8.638 0 01-7.91 7.911z" fill="#FDAE55"/></svg>