<svg width="20" height="20" fill="none" xmlns="http://www.w3.org/2000/svg"><g clip-path="url(#clip0)" fill="#0FA9C7"><path d="M.676 10c.365 0 .675-.278.675-.642 0-2.24.95-4.254 2.502-5.73A8.741 8.741 0 019.878 1.25c1.735 0 3.378.503 4.747 1.372a8.36 8.36 0 012.32 2.222l-.768-.278c-.347-.122-.73.035-.858.365a.62.62 0 00.383.816l2.41.902a.65.65 0 00.512 0 .675.675 0 00.383-.382l.95-2.291a.62.62 0 00-.384-.816c-.346-.122-.73.034-.858.364l-.401.99a9.384 9.384 0 00-2.94-2.917A10.123 10.123 0 009.878 0c-2.72 0-5.186 1.042-6.957 2.743C1.114 4.427 0 6.771 0 9.358c0 .347.31.642.676.642zm17.681-2a.641.641 0 00-.643.642c0 2.24-.904 4.254-2.38 5.73A8.108 8.108 0 015.08 15.378a8.143 8.143 0 01-2.207-2.223l.73.295a.63.63 0 00.816-.364.629.629 0 00-.365-.816l-2.294-.903a.594.594 0 00-.486 0 .659.659 0 00-.365.382L.04 14.023a.629.629 0 00.365.816.63.63 0 00.817-.364l.382-.99a9.166 9.166 0 002.798 2.917A9.298 9.298 0 009.633 18a9.284 9.284 0 006.621-2.743A9.296 9.296 0 0019 8.642.653.653 0 0018.357 8z"/><path d="M5 13h8c0-1.655-1.342-3-2.993-3h-2.03C6.341 10 5 11.345 5 13zm4-4a2 2 0 100-4 2 2 0 000 4z"/></g><defs><clipPath id="clip0"><path fill="#fff" d="M0 0h20v20H0z"/></clipPath></defs></svg>