<svg width="20" height="20" fill="none" xmlns="http://www.w3.org/2000/svg"><path d="M16.253 6.622a.714.714 0 00-1.01.013l-5.085 5.215-.586-.586 3.542-3.632a.714.714 0 10-1.023-.997l-3.529 3.62-.422-.423a.714.714 0 10-1.01 1.01l.435.435-.559.573-2.018-2.018a.714.714 0 10-1.01 1.01l2.53 2.53a.71.71 0 00.504.209h.005a.714.714 0 00.507-.216l1.051-1.078 1.084 1.084c.134.134.316.21.505.21h.005a.714.714 0 00.507-.216l5.59-5.733a.714.714 0 00-.013-1.01z" fill="#4A4D76"/><path d="M10 0C4.486 0 0 4.486 0 10s4.486 10 10 10 10-4.486 10-10S15.514 0 10 0zm0 18.571c-4.726 0-8.571-3.845-8.571-8.571 0-4.726 3.845-8.571 8.571-8.571 4.726 0 8.571 3.845 8.571 8.571 0 4.726-3.845 8.571-8.571 8.571z" fill="#4A4D76"/></svg>