<svg width="20" height="20" fill="none" xmlns="http://www.w3.org/2000/svg"><path d="M12.566 12.092a.257.257 0 01-.168-.054.248.248 0 01-.072-.144l-.642-3.84a.115.115 0 01.03-.12.126.126 0 01.09-.041h.786c.116 0 .18.046.192.138l.366 2.267.414-1.314c.032-.108.098-.162.198-.162h.45c.1 0 .166.054.198.162l.414 1.308.372-2.261c.007-.048.025-.082.053-.102.028-.024.072-.036.132-.036h.786c.036 0 .066.014.09.042a.115.115 0 01.036.084v.036l-.642 3.839a.234.234 0 01-.078.144.247.247 0 01-.162.054h-.605a.218.218 0 01-.222-.156l-.594-1.662-.594 1.662a.286.286 0 01-.078.108.218.218 0 01-.15.048h-.6zm-4.376 0a.16.16 0 01-.108-.042.16.16 0 01-.042-.108V8.049c0-.044.014-.08.042-.108a.137.137 0 01.108-.048h2.83c.045 0 .08.016.109.048a.137.137 0 01.048.108v.593c0 .044-.016.08-.048.108a.146.146 0 01-.108.042H9.125v.762h1.764c.044 0 .08.016.108.048a.137.137 0 01.048.108v.546a.156.156 0 01-.048.114.146.146 0 01-.108.042H9.125v.78h1.944c.044 0 .08.016.108.048a.137.137 0 01.048.108v.594c0 .044-.016.08-.048.108a.146.146 0 01-.108.042h-2.88zm-4.324 0a.16.16 0 01-.108-.042.16.16 0 01-.042-.108V8.049c0-.044.014-.08.042-.108a.137.137 0 01.108-.048h.678a.22.22 0 01.204.114l1.416 2.237V8.049c0-.044.014-.08.042-.108a.137.137 0 01.108-.048h.762c.044 0 .08.016.108.048a.146.146 0 01.042.108v3.887a.167.167 0 01-.042.114.146.146 0 01-.108.042h-.678a.22.22 0 01-.204-.114L4.784 9.83v2.112c0 .044-.016.08-.048.108a.146.146 0 01-.108.042h-.762zM10 0a10 10 0 100 20 10 10 0 000-20zm0 1.24a8.76 8.76 0 110 17.52 8.76 8.76 0 010-17.52z" fill="#0FA9C7"/></svg>