<svg width="30" height="30" fill="none" xmlns="http://www.w3.org/2000/svg"><path d="M27.469 2.488H2.53A2.535 2.535 0 000 5.02v19.96a2.534 2.534 0 002.531 2.532H27.47A2.534 2.534 0 0030 24.981V5.02a2.534 2.534 0 00-2.53-2.532zM2.53 4.633h24.94c.212 0 .386.173.386.387v5.154H2.145V5.02c0-.214.173-.387.386-.387zm24.94 20.734H2.53a.388.388 0 01-.387-.386V12.319h25.712v12.662a.388.388 0 01-.387.386z" fill="#4A4D76"/><path d="M5.285 8.74a1.427 1.427 0 100-2.854 1.427 1.427 0 000 2.854zm3.817 0A1.426 1.426 0 109.1 5.888a1.426 1.426 0 00.002 2.852zm3.816 0a1.427 1.427 0 100-2.854 1.427 1.427 0 000 2.854z" fill="#4A4D76"/></svg>