<svg width="30" height="30" fill="none" xmlns="http://www.w3.org/2000/svg"><path d="M19.965 20.167l1.537-.03.014 1.425c.007.682.396 1.23 1.077 1.23.682 0 1.182-.584 1.175-1.23l-.014-1.425 1.412.016c.681.008 1.244-.438 1.244-1.12 0-.681-.549-1.15-1.23-1.146l-1.426.018v-1.393c0-.681-.479-1.244-1.16-1.244-.682 0-1.092.633-1.092 1.217v1.42l-1.495.01c-.682.004-1.23.437-1.23 1.119 0 .681.516 1.203 1.188 1.133z" fill="#4A4D76"/><path d="M29.93 5.523c.092-1.43-.689-2.481-2.48-2.481H2.706c-1.546 0-2.48.822-2.48 2.48v18.351c0 1.742.696 2.48 2.48 2.48H27.45c1.686 0 2.496-.8 2.48-2.48V5.523zm-2.19 18.882l-25.525.04V5.233l25.525-.04v19.212z" fill="#4A4D76"/><path d="M7.865 11.418h7.334c.633 0 1.112-.393 1.112-1.054 0-.681-.5-1.053-1.112-1.053H7.865c-.559 0-1.05.391-1.053 1.034-.004.587.4 1.073 1.053 1.073zm.021 5.593l7.271-.028c.633-.002 1.202-.514 1.189-1.112a1.12 1.12 0 00-1.142-1.107l-7.279.042c-.602.004-1.162.48-1.151 1.093.01.597.519 1.114 1.112 1.112z" fill="#4A4D76"/></svg>